<svg width="58" height="73" viewBox="0 0 58 73" fill="none" xmlns="http://www.w3.org/2000/svg">
<path fill-rule="evenodd" clip-rule="evenodd" d="M5 0C2.23858 0 0 2.23858 0 5.00001V67.3333C0 70.0947 2.23858 72.3333 5 72.3333H21.8333C41.8076 72.3333 58 56.141 58 36.1667C58 16.1924 41.8076 0 21.8333 0H5ZM12 9.57355C10.3431 9.57355 9 10.9167 9 12.5735V59.7598C9 61.4167 10.3431 62.7598 12 62.7598H14C16.7614 62.7598 19 60.5212 19 57.7598V14.5735C19 11.8121 16.7614 9.57355 14 9.57355H12Z" fill="white"/>
</svg>
