<svg width="451" height="110" viewBox="0 0 451 110" fill="none" xmlns="http://www.w3.org/2000/svg">
<path d="M103.558 96.96C98.3743 96.96 93.7663 95.872 89.7343 93.696C85.7663 91.456 82.6303 88.416 80.3263 84.576C78.0863 80.736 76.9663 76.32 76.9663 71.328C76.9663 67.36 77.6063 63.744 78.8863 60.48C80.1663 57.216 81.9263 54.4 84.1663 52.032C86.4703 49.6 89.1903 47.744 92.3263 46.464C95.5263 45.12 98.9823 44.448 102.694 44.448C105.958 44.448 108.998 45.088 111.814 46.368C114.63 47.584 117.062 49.28 119.11 51.456C121.222 53.632 122.822 56.224 123.91 59.232C125.062 62.176 125.606 65.408 125.542 68.928L125.446 73.152H84.2623L82.0543 65.28H116.902L115.462 66.912V64.608C115.27 62.496 114.566 60.608 113.35 58.944C112.134 57.28 110.598 55.968 108.742 55.008C106.886 54.048 104.87 53.568 102.694 53.568C99.2383 53.568 96.3263 54.24 93.9583 55.584C91.5903 56.864 89.7983 58.784 88.5823 61.344C87.3663 63.84 86.7583 66.944 86.7583 70.656C86.7583 74.176 87.4943 77.248 88.9663 79.872C90.4383 82.432 92.5183 84.416 95.2063 85.824C97.8943 87.232 100.998 87.936 104.518 87.936C107.014 87.936 109.318 87.52 111.43 86.688C113.606 85.856 115.942 84.352 118.438 82.176L123.43 89.184C121.894 90.72 120.006 92.064 117.766 93.216C115.59 94.368 113.254 95.296 110.758 96C108.326 96.64 105.926 96.96 103.558 96.96ZM151.168 96.96C146.944 96.96 143.136 96.224 139.744 94.752C136.352 93.28 133.536 91.104 131.296 88.224L138.016 82.464C139.936 84.704 142.016 86.336 144.256 87.36C146.56 88.32 149.152 88.8 152.032 88.8C153.184 88.8 154.24 88.672 155.2 88.416C156.224 88.096 157.088 87.648 157.792 87.072C158.56 86.496 159.136 85.824 159.52 85.056C159.904 84.224 160.096 83.328 160.096 82.368C160.096 80.704 159.488 79.36 158.272 78.336C157.632 77.888 156.608 77.408 155.2 76.896C153.856 76.32 152.096 75.744 149.92 75.168C146.208 74.208 143.168 73.12 140.8 71.904C138.432 70.688 136.608 69.312 135.328 67.776C134.368 66.56 133.664 65.248 133.216 63.84C132.768 62.368 132.544 60.768 132.544 59.04C132.544 56.224 133.344 53.728 134.944 51.552C136.544 49.376 138.688 47.68 141.376 46.464C144.128 45.184 147.2 44.544 150.592 44.544C152.96 44.544 155.296 44.864 157.6 45.504C159.968 46.144 162.144 47.072 164.128 48.288C166.112 49.504 167.776 50.944 169.12 52.608L163.456 58.848C162.24 57.632 160.896 56.576 159.424 55.68C158.016 54.72 156.576 53.984 155.104 53.472C153.632 52.96 152.288 52.704 151.072 52.704C149.728 52.704 148.512 52.832 147.424 53.088C146.336 53.344 145.408 53.728 144.64 54.24C143.936 54.752 143.392 55.392 143.008 56.16C142.624 56.928 142.432 57.792 142.432 58.752C142.496 59.584 142.688 60.384 143.008 61.152C143.392 61.856 143.904 62.464 144.544 62.976C145.248 63.488 146.304 64.032 147.712 64.608C149.12 65.184 150.912 65.728 153.088 66.24C156.288 67.072 158.912 68 160.96 69.024C163.072 69.984 164.736 71.104 165.952 72.384C167.232 73.6 168.128 75.008 168.64 76.608C169.152 78.208 169.408 80 169.408 81.984C169.408 84.864 168.576 87.456 166.912 89.76C165.312 92 163.136 93.76 160.384 95.04C157.632 96.32 154.56 96.96 151.168 96.96ZM184.626 96V32.736H194.514V96H184.626ZM174.162 55.2V45.6H206.226V55.2H174.162ZM236.361 96.96C231.177 96.96 226.569 95.872 222.537 93.696C218.569 91.456 215.433 88.416 213.129 84.576C210.889 80.736 209.769 76.32 209.769 71.328C209.769 67.36 210.409 63.744 211.689 60.48C212.969 57.216 214.729 54.4 216.969 52.032C219.273 49.6 221.993 47.744 225.129 46.464C228.329 45.12 231.785 44.448 235.497 44.448C238.761 44.448 241.801 45.088 244.617 46.368C247.433 47.584 249.865 49.28 251.913 51.456C254.025 53.632 255.625 56.224 256.713 59.232C257.865 62.176 258.409 65.408 258.345 68.928L258.249 73.152H217.065L214.857 65.28H249.705L248.265 66.912V64.608C248.073 62.496 247.369 60.608 246.153 58.944C244.937 57.28 243.401 55.968 241.545 55.008C239.689 54.048 237.673 53.568 235.497 53.568C232.041 53.568 229.129 54.24 226.761 55.584C224.393 56.864 222.601 58.784 221.385 61.344C220.169 63.84 219.561 66.944 219.561 70.656C219.561 74.176 220.297 77.248 221.769 79.872C223.241 82.432 225.321 84.416 228.009 85.824C230.697 87.232 233.801 87.936 237.321 87.936C239.817 87.936 242.121 87.52 244.233 86.688C246.409 85.856 248.745 84.352 251.241 82.176L256.233 89.184C254.697 90.72 252.809 92.064 250.569 93.216C248.393 94.368 246.057 95.296 243.561 96C241.129 96.64 238.729 96.96 236.361 96.96ZM267.171 96V45.6H277.155V61.44L276.195 57.6C276.899 55.168 278.083 52.96 279.747 50.976C281.475 48.992 283.427 47.424 285.603 46.272C287.843 45.12 290.147 44.544 292.515 44.544C293.603 44.544 294.627 44.64 295.587 44.832C296.611 45.024 297.411 45.248 297.987 45.504L295.395 56.256C294.627 55.936 293.763 55.68 292.803 55.488C291.907 55.232 291.011 55.104 290.115 55.104C288.387 55.104 286.723 55.456 285.123 56.16C283.587 56.8 282.211 57.728 280.995 58.944C279.843 60.096 278.915 61.472 278.211 63.072C277.507 64.608 277.155 66.304 277.155 68.16V96H267.171ZM306.465 96V28.8H316.833V86.016H348.321V96H306.465ZM361.15 96V45.6H371.038V96H361.15ZM365.95 34.464C363.838 34.464 362.206 33.92 361.054 32.832C359.902 31.744 359.326 30.208 359.326 28.224C359.326 26.368 359.902 24.864 361.054 23.712C362.27 22.56 363.902 21.984 365.95 21.984C368.062 21.984 369.694 22.528 370.846 23.616C371.998 24.704 372.574 26.24 372.574 28.224C372.574 30.08 371.966 31.584 370.75 32.736C369.598 33.888 367.998 34.464 365.95 34.464ZM410.813 96.96C408.637 96.96 406.461 96.608 404.285 95.904C402.173 95.2 400.221 94.272 398.429 93.12C396.701 91.904 395.229 90.592 394.013 89.184C392.861 87.712 392.093 86.24 391.709 84.768L394.205 83.424V95.712H384.317V24.96H394.205V57.12L392.669 56.256C392.989 54.784 393.693 53.376 394.781 52.032C395.869 50.624 397.245 49.376 398.909 48.288C400.637 47.136 402.493 46.24 404.477 45.6C406.461 44.896 408.477 44.544 410.525 44.544C415.069 44.544 419.101 45.664 422.621 47.904C426.141 50.144 428.925 53.248 430.973 57.216C433.021 61.12 434.045 65.6 434.045 70.656C434.045 75.712 433.021 80.224 430.973 84.192C428.989 88.16 426.237 91.296 422.717 93.6C419.197 95.84 415.229 96.96 410.813 96.96ZM409.181 87.936C412.125 87.936 414.749 87.2 417.053 85.728C419.357 84.192 421.181 82.144 422.525 79.584C423.869 76.96 424.541 73.984 424.541 70.656C424.541 67.392 423.869 64.48 422.525 61.92C421.245 59.296 419.453 57.248 417.149 55.776C414.845 54.304 412.189 53.568 409.181 53.568C406.173 53.568 403.517 54.304 401.213 55.776C398.909 57.248 397.085 59.296 395.741 61.92C394.397 64.48 393.725 67.392 393.725 70.656C393.725 73.984 394.397 76.96 395.741 79.584C397.085 82.144 398.909 84.192 401.213 85.728C403.517 87.2 406.173 87.936 409.181 87.936Z" fill="white"/>
<path fill-rule="evenodd" clip-rule="evenodd" d="M18 24C15.2386 24 13 26.2386 13 29V91.3333C13 94.0947 15.2386 96.3333 18 96.3333H34.8333C54.8076 96.3333 71 80.141 71 60.1667C71 40.1924 54.8076 24 34.8333 24H18ZM25 33.5735C23.3431 33.5735 22 34.9167 22 36.5735V83.7598C22 85.4167 23.3431 86.7598 25 86.7598H27C29.7614 86.7598 32 84.5212 32 81.7598V38.5735C32 35.8121 29.7614 33.5735 27 33.5735H25Z" fill="white"/>
</svg>
