<svg width="58" height="73" viewBox="0 0 58 73" fill="none" xmlns="http://www.w3.org/2000/svg">
<path d="M0 5.00001C0 2.23858 2.23858 0 5 0H21.8333C41.8076 0 58 16.1924 58 36.1667V36.1667C58 56.141 41.8076 72.3333 21.8333 72.3333H5C2.23858 72.3333 0 70.0948 0 67.3333V5.00001Z" fill="black"/>
<path d="M9 12.5735C9 10.9167 10.3431 9.57355 12 9.57355H14C16.7614 9.57355 19 11.8121 19 14.5735V57.7598C19 60.5212 16.7614 62.7598 14 62.7598H12C10.3431 62.7598 9 61.4167 9 59.7598V12.5735Z" fill="white"/>
</svg>
